<?xml version="1.0" encoding="UTF-8" standalone="no"?>
<!DOCTYPE svg PUBLIC "-//W3C//DTD SVG 1.1//EN" "http://www.w3.org/Graphics/SVG/1.1/DTD/svg11.dtd">
<svg version="1.1" xmlns="http://www.w3.org/2000/svg" xmlns:xlink="http://www.w3.org/1999/xlink" preserveAspectRatio="xMidYMid meet" viewBox="0 0 640 640" width="50" height="50"><defs><path d="M619.27 0C630.72 0 640 9.28 640 20.73C640 80.58 640 239.42 640 299.27C640 310.72 630.72 320 619.27 320C495.42 320 144.58 320 20.73 320C9.28 320 0 310.72 0 299.27C0 239.42 0 80.58 0 20.73C0 9.28 9.28 0 20.73 0C144.58 0 495.42 0 619.27 0Z" id="b1MPWkEvft"></path><path d="M0 110.93L640 110.93L640 320L0 320L0 110.93Z" id="cMD0Z8P39"></path><path d="M300.04 320C311.06 320 320 328.94 320 339.96C320 399.97 320 560.03 320 620.04C320 631.06 311.06 640 300.04 640C240.03 640 79.97 640 19.96 640C8.94 640 0 631.06 0 620.04C0 560.03 0 399.97 0 339.96C0 328.94 8.94 320 19.96 320C79.97 320 240.03 320 300.04 320Z" id="a2zKKZCCFI"></path><path d="M0 320L320 320L320 436.7L0 436.7L0 320Z" id="a17wwxjI1k"></path><path d="M203.51 476.91L320 476.91L320 640L203.51 640L203.51 476.91Z" id="a2YigmOtqf"></path><path d="M615.65 320C629.1 320 640 330.9 640 344.35C640 403.48 640 556.52 640 615.65C640 629.1 629.1 640 615.65 640C556.52 640 403.48 640 344.35 640C330.9 640 320 629.1 320 615.65C320 556.52 320 403.48 320 344.35C320 330.9 330.9 320 344.35 320C403.48 320 556.52 320 615.65 320Z" id="b1G0wEurZW"></path><path d="M320 320L640 320L640 419.18L320 419.18L320 320Z" id="a6jja9USA5"></path><path d="M320 445.98L450.93 445.98L450.93 640L320 640L320 445.98Z" id="d5530l7A3S"></path></defs><g><g><g><use xlink:href="#b1MPWkEvft" opacity="1" fill="#ffd915" fill-opacity="1"></use></g><g><use xlink:href="#cMD0Z8P39" opacity="1" fill="#ffd915" fill-opacity="1"></use></g><g><use xlink:href="#a2zKKZCCFI" opacity="1" fill="#000000" fill-opacity="1"></use></g><g><use xlink:href="#a17wwxjI1k" opacity="1" fill="#000000" fill-opacity="1"></use></g><g><use xlink:href="#a2YigmOtqf" opacity="1" fill="#000000" fill-opacity="1"></use></g><g><use xlink:href="#b1G0wEurZW" opacity="1" fill="#ffffff" fill-opacity="1"></use></g><g><use xlink:href="#a6jja9USA5" opacity="1" fill="#ffffff" fill-opacity="1"></use></g><g><use xlink:href="#d5530l7A3S" opacity="1" fill="#ffffff" fill-opacity="1"></use></g></g></g></svg>